<svg width="1024" height="1024" viewBox="0 0 1024 1024" fill="none" xmlns="http://www.w3.org/2000/svg">
  <defs>
    <linearGradient id="bg" x1="132" y1="92" x2="924" y2="922" gradientUnits="userSpaceOnUse">
      <stop stop-color="#0F172A"/>
      <stop offset="1" stop-color="#1E293B"/>
    </linearGradient>
    <linearGradient id="ring" x1="232" y1="212" x2="800" y2="832" gradientUnits="userSpaceOnUse">
      <stop stop-color="#22D3EE"/>
      <stop offset="1" stop-color="#38BDF8"/>
    </linearGradient>
    <linearGradient id="accent" x1="318" y1="312" x2="742" y2="742" gradientUnits="userSpaceOnUse">
      <stop stop-color="#A5F3FC"/>
      <stop offset="1" stop-color="#0EA5E9"/>
    </linearGradient>
    <filter id="shadow" x="120" y="120" width="784" height="784" filterUnits="userSpaceOnUse" color-interpolation-filters="sRGB">
      <feFlood flood-opacity="0" result="BackgroundImageFix"/>
      <feColorMatrix in="SourceAlpha" type="matrix" values="0 0 0 0 0 0 0 0 0 0 0 0 0 0 0 0 0 0 127 0" result="hardAlpha"/>
      <feOffset dy="16"/>
      <feGaussianBlur stdDeviation="18"/>
      <feComposite in2="hardAlpha" operator="out"/>
      <feColorMatrix type="matrix" values="0 0 0 0 0.034 0 0 0 0 0.27 0 0 0 0 0.431 0 0 0 0.45 0"/>
      <feBlend mode="normal" in2="BackgroundImageFix" result="effect1_dropShadow_1_1"/>
      <feBlend mode="normal" in="SourceGraphic" in2="effect1_dropShadow_1_1" result="shape"/>
    </filter>
  </defs>

  <rect x="64" y="64" width="896" height="896" rx="224" fill="url(#bg)"/>

  <g filter="url(#shadow)">
    <circle cx="512" cy="512" r="300" fill="#0B1220"/>
    <circle cx="512" cy="512" r="300" stroke="url(#ring)" stroke-width="44"/>
  </g>

  <path d="M362 430H662" stroke="url(#accent)" stroke-width="32" stroke-linecap="round"/>
  <path d="M362 512H592" stroke="#7DD3FC" stroke-width="32" stroke-linecap="round"/>
  <path d="M362 594H662" stroke="url(#accent)" stroke-width="32" stroke-linecap="round"/>

  <path d="M652 512L712 452V492H768V532H712V572L652 512Z" fill="#22D3EE"/>
  <path d="M372 512L312 572V532H256V492H312V452L372 512Z" fill="#38BDF8"/>

  <path d="M398 320L340 262L372 230L430 288L488 230L520 262L462 320L520 378L488 410L430 352L372 410L340 378L398 320Z" fill="#E0F2FE"/>
  <path d="M558 318H664C709 318 740 349 740 392C740 430 716 460 680 466L744 550H692L634 473H604V550H558V318ZM664 432C687 432 697 418 697 399C697 380 687 366 664 366H604V432H664Z" fill="#E0F2FE"/>
</svg>
