<svg xmlns="http://www.w3.org/2000/svg" viewBox="0 0 32 32" role="img" aria-label="Safari">
  <circle cx="16" cy="16" r="15" fill="#0a84ff"/>
  <circle cx="16" cy="16" r="11.6" fill="#64d2ff"/>
  <path fill="#fff" d="M16 4.6 17 8l1.6-3.2-.1 3.6 2.4-2.7-1.2 3.4 3.1-1.8-2.2 2.8 3.5-.7-3 1.9 3.6.6-3.5.8 3 2-3.6-.1 2.4 2.7-3.2-1.4 1.4 3.3-2.7-2.3.2 3.6-1.7-3.2-1 3.5-1-3.5-1.7 3.2.2-3.6-2.7 2.3 1.4-3.3-3.2 1.4 2.4-2.7-3.6.1 3-2-3.5-.8 3.6-.6-3-1.9 3.5.7-2.2-2.8 3.1 1.8-1.2-3.4 2.4 2.7-.1-3.6L15 8z" opacity=".9"/>
  <path fill="#ef4444" d="m18.2 14.1 4.3-5.6-5.6 4.3-7.4 10.7z"/>
  <path fill="#fff" d="m13.8 17.9-4.3 5.6 5.6-4.3 7.4-10.7z"/>
  <circle cx="16" cy="16" r="2.1" fill="#fff"/>
  <circle cx="16" cy="16" r="1" fill="#0a84ff"/>
</svg>
